<svg width="104" height="100" viewBox="0 0 104 100" fill="none" xmlns="http://www.w3.org/2000/svg">
<path d="M4 43C4 44.2 4.66667 48.1667 5 50L14 58.5L24.5 58H30L36.5 63.5L42 66.5H51.5L62.5 63.5L70 60H76.5L83.5 61.5L90 58L95.5 56L98.5 48.5L100 43L98.5 34.5L93.5 26C91.8333 25.3333 88.2 24 87 24C85.5 24 83 17 82 15.5C81 14 77.5 12 76.5 10.5C75.7 9.3 71.8333 6.66667 70 5.5H67H60.5H54.5C53.3 5.5 50.3333 6.83333 49 7.5C48.1667 8.5 46.4 10.5 46 10.5H40.5H36.5H30H26L19 17L15 24L12.5 28.5L8 30L5 33C4.66667 35.8333 4 41.8 4 43Z" fill="#140C1C"/>
<path d="M81.4637 64.4969C93.8903 64.4969 104 54.3872 104 41.9606C104 36.5039 102.017 31.235 98.4165 27.125C95.3233 23.5941 91.2285 21.1273 86.7222 20.0447C83.5778 8.63614 73.1276 0.557861 61.1226 0.557861C54.2017 0.557861 47.6237 3.24155 42.6973 8.00056C39.6658 6.28355 36.2546 5.38675 32.6909 5.38675C22.32 5.38675 13.6713 13.2686 12.4847 23.3558C9.20014 24.7421 6.27981 27.0011 4.11592 29.8601C1.4233 33.4174 0 37.6564 0 42.1187C0 53.3368 9.12681 62.4635 20.3448 62.4635C23.1997 62.4635 26.014 61.8573 28.614 60.6942C34.1752 67.0508 42.2918 70.7774 50.8133 70.7774C58.6219 70.7774 66.0603 67.6783 71.5821 62.1984C74.6592 63.708 78.0301 64.4969 81.4637 64.4969ZM68.6587 56.3943C64.1788 61.6623 57.6745 64.6836 50.8133 64.6836C43.3463 64.6836 36.2714 61.0771 31.888 55.0364C31.2947 54.219 30.3658 53.7789 29.4198 53.7789C28.8718 53.7789 28.3177 53.9265 27.82 54.2343C25.5596 55.6314 22.9747 56.3699 20.3448 56.3699C12.4869 56.3697 6.09375 49.9767 6.09375 42.1187C6.09375 35.8695 10.2771 30.2535 16.2671 28.4615C17.5453 28.0791 18.4261 26.9093 18.4403 25.5751C18.5238 17.8032 24.9165 11.4803 32.6907 11.4803C35.8491 11.4803 38.8332 12.4821 41.3203 14.3771C42.6118 15.3614 44.4482 15.1599 45.4955 13.9186C49.3927 9.30036 55.0885 6.65161 61.1223 6.65161C70.9164 6.65161 79.3666 13.6277 81.2155 23.2392C81.4613 24.5175 82.4919 25.4984 83.7807 25.6808C91.8336 26.8197 97.9062 33.8186 97.9062 41.9606C97.9062 51.0271 90.5302 58.4032 81.4637 58.4032C78.3398 58.4032 75.2822 57.5036 72.6217 55.8016C71.3381 54.9805 69.6455 55.2336 68.6587 56.3943Z" fill="#7E4AE7"/>
<path d="M71.9062 68.9731C65.7461 68.9731 60.7344 73.9848 60.7344 80.145C60.7344 86.3052 65.7461 91.3169 71.9062 91.3169C78.0664 91.3169 83.0781 86.3052 83.0781 80.145C83.0781 73.9848 78.0664 68.9731 71.9062 68.9731ZM71.9062 85.2231C69.1062 85.2231 66.8281 82.9451 66.8281 80.145C66.8281 77.3449 69.1062 75.0669 71.9062 75.0669C74.7063 75.0669 76.9844 77.3449 76.9844 80.145C76.9844 82.9451 74.7063 85.2231 71.9062 85.2231Z" fill="#7E4AE7"/>
<path d="M94.8594 81.1606C89.8192 81.1606 85.7188 85.2611 85.7188 90.3013C85.7188 95.3414 89.8192 99.4419 94.8594 99.4419C99.8995 99.4419 104 95.3414 104 90.3013C104 85.2611 99.8995 81.1606 94.8594 81.1606ZM94.8594 93.3481C93.1793 93.3481 91.8125 91.9813 91.8125 90.3013C91.8125 88.6212 93.1793 87.2544 94.8594 87.2544C96.5394 87.2544 97.9062 88.6212 97.9062 90.3013C97.9062 91.9813 96.5394 93.3481 94.8594 93.3481Z" fill="#7E4AE7"/>
</svg>
