<svg width="26" height="27" viewBox="0 0 26 27" fill="none" xmlns="http://www.w3.org/2000/svg">
<g clip-path="url(#clip0_469_44)">
<path d="M15.0141 7.83721L15.0141 7.83721C11.7181 7.14624 9.14184 4.57005 8.45095 1.27394C8.41217 1.08904 8.24907 0.956565 8.06007 0.956565C7.87107 0.956565 7.70801 1.08903 7.66926 1.27392L7.66925 1.27394C6.97833 4.57002 4.4021 7.14619 1.10601 7.83706L1.106 7.83706C0.921089 7.87582 0.788596 8.03895 0.788596 8.22788C0.788596 8.41682 0.92106 8.57993 1.10599 8.61869L1.10603 8.61869C4.40206 9.30967 6.97818 11.8858 7.6691 15.1819L7.66911 15.1819C7.70786 15.3669 7.87096 15.4993 8.05992 15.4993C8.24887 15.4993 8.41198 15.3669 8.45073 15.1819L8.45074 15.1819C9.14171 11.8858 11.718 9.30966 15.0141 8.61884L15.1023 9.03989L15.0141 8.61884C15.199 8.58008 15.3315 8.41702 15.3315 8.22808L15.0141 7.83721ZM15.0141 7.83721C15.1989 7.87595 15.3314 8.03902 15.3315 8.22803L15.0141 7.83721ZM7.24805 15.2702C6.59217 12.1412 4.14665 9.69567 1.01776 9.03974C0.633557 8.95923 0.358398 8.6204 0.358398 8.22788L7.24805 15.2702ZM7.24805 15.2702C7.32857 15.6543 7.66735 15.9295 8.05992 15.9295M7.24805 15.2702L8.05992 15.9295M8.05992 15.9295C8.45244 15.9295 8.79127 15.6544 8.87178 15.2702L8.05992 15.9295Z" fill="white" stroke="white" stroke-width="0.860395"/>
<path d="M13.7304 21.1203C12.2562 20.8113 11.1039 19.6591 10.7949 18.1848C10.7144 17.8006 10.3756 17.5254 9.983 17.5254C9.59048 17.5254 9.25164 17.8005 9.17113 18.1847C8.86205 19.659 7.70974 20.8112 6.23553 21.1202C5.85138 21.2008 5.57617 21.5396 5.57617 21.9321C5.57617 22.3246 5.85133 22.6635 6.23553 22.744C7.70969 23.053 8.86199 24.2053 9.17103 25.6796C9.25154 26.0637 9.59032 26.3389 9.9829 26.3389C10.3754 26.3389 10.7143 26.0638 10.7948 25.6796C11.1038 24.2053 12.2562 23.0531 13.7304 22.744C14.1146 22.6635 14.3898 22.3247 14.3898 21.9322C14.3898 21.5396 14.1146 21.2009 13.7304 21.1203ZM13.7304 21.1203L13.6421 21.5413C13.6421 21.5413 13.6421 21.5413 13.6422 21.5413M13.7304 21.1203L13.6422 21.5413M13.6422 21.5413C12.0008 21.1973 10.7179 19.9145 10.3738 18.273L10.3738 18.273C10.3351 18.0881 10.172 17.9556 9.983 17.9556C9.79401 17.9556 9.63093 18.088 9.59219 18.2729L9.59218 18.273C9.24805 19.9144 7.96514 21.1972 6.3238 21.5413L6.32378 21.5413C6.13886 21.58 6.00637 21.7432 6.00637 21.9321C6.00637 22.1211 6.13883 22.2842 6.32377 22.3229L6.3238 22.3229C7.9651 22.667 9.248 23.9499 9.59208 25.5913L9.59208 25.5913C9.63084 25.7762 9.79394 25.9087 9.9829 25.9087C10.1719 25.9087 10.335 25.7763 10.3737 25.5913L10.3737 25.5913C10.7178 23.9499 12.0008 22.667 13.6421 22.323L13.6422 22.323C13.8271 22.2842 13.9596 22.1211 13.9596 21.9322C13.9596 21.7433 13.8272 21.5802 13.6422 21.5413Z" fill="white" stroke="white" stroke-width="0.860395"/>
<path d="M24.8482 13.8607L24.8482 13.8607C25.0331 13.8995 25.1656 14.0626 25.1656 14.2515C25.1656 14.4404 25.0331 14.6036 24.8481 14.6424C22.6884 15.095 21.0004 16.7831 20.5475 18.9428L20.5475 18.9429C20.5088 19.1278 20.3457 19.2603 20.1567 19.2603C19.9678 19.2603 19.8047 19.1278 19.7659 18.9429L19.7659 18.9429C19.3132 16.7831 17.6252 15.095 15.4654 14.6423C15.2804 14.6035 15.148 14.4403 15.148 14.2514C15.148 14.0625 15.2805 13.8994 15.4654 13.8606L15.4654 13.8606C17.6252 13.4079 19.3132 11.7199 19.766 9.56008L19.766 9.56004C19.8048 9.37515 19.9678 9.2427 20.1568 9.2427C20.3458 9.2427 20.5089 9.37518 20.5476 9.56011L20.5476 9.56012C21.0004 11.7199 22.6884 13.408 24.8482 13.8607Z" fill="white" stroke="white" stroke-width="0.860395"/>
</g>
<defs>
<clipPath id="clip0_469_44">
<rect width="25.8119" height="25.8118" fill="white" transform="translate(0.0751953 0.525391)"/>
</clipPath>
</defs>
</svg>
