<svg width="36" height="36" viewBox="0 0 36 36" fill="none" xmlns="http://www.w3.org/2000/svg">
<g clip-path="url(#clip0_748_194)">
<path d="M19.027 3.72199C19.027 3.44999 18.919 3.18927 18.7266 2.99697L16.53 0.800311C16.1296 0.39993 15.4803 0.399862 15.0799 0.800311C14.6795 1.20076 14.6795 1.84997 15.0799 2.25042L15.5296 2.70009C8.42915 2.84726 2.69824 8.66834 2.69824 15.8034C2.69824 16.3697 3.15734 16.8288 3.72363 16.8288C4.28992 16.8288 4.74902 16.3697 4.74902 15.8034C4.74902 9.80153 9.55626 4.9014 15.5225 4.751L15.0799 5.19356C14.6795 5.59394 14.6795 6.24322 15.0799 6.64367C15.4804 7.04426 16.1296 7.04398 16.53 6.64367L18.7267 4.44701C18.919 4.25478 19.027 3.99399 19.027 3.72199Z" fill="white"/>
<path d="M32.2785 19.1714C31.7122 19.1714 31.2531 19.6305 31.2531 20.1968C31.2531 26.1987 26.4458 31.0988 20.4796 31.2492L20.9222 30.8066C21.3227 30.4063 21.3227 29.757 20.9222 29.3565C20.5218 28.9561 19.8725 28.9561 19.4721 29.3565L17.2754 31.5532C16.8782 31.935 16.8783 32.6215 17.2754 33.0033L19.4721 35.2C19.8726 35.6005 20.5219 35.6003 20.9222 35.2C21.3227 34.7995 21.3227 34.1503 20.9222 33.7498L20.4725 33.3002C27.5729 33.153 33.3039 27.3319 33.3039 20.1969C33.3039 19.6305 32.8448 19.1714 32.2785 19.1714Z" fill="white"/>
<path d="M32.0497 7.85863C34.7318 5.18728 32.8086 0.491058 28.9817 0.500013C25.155 0.49099 23.2317 5.18803 25.9138 7.85863C23.863 8.95764 22.4648 11.1218 22.4648 13.6068V15.8034C22.4648 16.3696 22.9239 16.8287 23.4902 16.8287H34.4733C35.0396 16.8287 35.4987 16.3696 35.4987 15.8034V13.6068C35.4987 11.1219 34.1005 8.95764 32.0497 7.85863ZM28.9817 2.55079C30.2332 2.55079 31.2513 3.56894 31.2513 4.82033C31.1267 7.83108 26.8365 7.83033 26.7123 4.82033C26.7123 3.56894 27.7304 2.55079 28.9817 2.55079ZM33.4479 14.778H24.5156V13.6068C24.7617 7.68034 33.2041 7.68499 33.4479 13.6068V14.778Z" fill="white"/>
<path d="M10.0849 26.5298C12.767 23.8584 10.8437 19.1622 7.01684 19.1712C3.19015 19.1621 1.26686 23.8592 3.94894 26.5298C1.89815 27.6288 0.5 29.793 0.5 32.278V34.4746C0.5 35.0409 0.959102 35.5 1.52539 35.5H12.5085C13.0748 35.5 13.5339 35.0409 13.5339 34.4746V32.278C13.5339 29.793 12.1357 27.6288 10.0849 26.5298ZM7.0169 21.2219C8.26836 21.2219 9.28644 22.2401 9.28644 23.4915C9.16182 26.5022 4.87165 26.5015 4.74744 23.4915C4.74744 22.2401 5.76552 21.2219 7.0169 21.2219ZM11.4831 33.4492H2.55078V32.278C2.79681 26.3515 11.2393 26.3561 11.4831 32.278V33.4492Z" fill="white"/>
</g>
<defs>
<clipPath id="clip0_748_194">
<rect width="35" height="35" fill="white" transform="translate(0.5 0.5)"/>
</clipPath>
</defs>
</svg>
