<svg width="104" height="104" viewBox="0 0 104 104" fill="none" xmlns="http://www.w3.org/2000/svg">
<path d="M4 45C4 46.2 4.66667 50.1667 5 52L14 60.5L24.5 60H30L36.5 65.5L42 68.5H51.5L62.5 65.5L70 62H76.5L83.5 63.5L90 60L95.5 58L98.5 50.5L100 45L98.5 36.5L93.5 28C91.8333 27.3333 88.2 26 87 26C85.5 26 83 19 82 17.5C81 16 77.5 14 76.5 12.5C75.7 11.3 71.8333 8.66667 70 7.5H67H60.5H54.5C53.3 7.5 50.3333 8.83333 49 9.5C48.1667 10.5 46.4 12.5 46 12.5H40.5H36.5H30H26L19 19L15 26L12.5 30.5L8 32L5 35C4.66667 37.8333 4 43.8 4 45Z" fill="#140C1C"/>
<path d="M81.4637 66.4969C93.8903 66.4969 104 56.3872 104 43.9606C104 38.5039 102.017 33.235 98.4165 29.125C95.3233 25.5941 91.2285 23.1273 86.7222 22.0447C83.5778 10.6361 73.1276 2.55786 61.1226 2.55786C54.2017 2.55786 47.6237 5.24155 42.6973 10.0006C39.6658 8.28355 36.2546 7.38675 32.6909 7.38675C22.32 7.38675 13.6713 15.2686 12.4847 25.3558C9.20014 26.7421 6.27981 29.0011 4.11592 31.8601C1.4233 35.4174 0 39.6564 0 44.1187C0 55.3368 9.12681 64.4635 20.3448 64.4635C23.1997 64.4635 26.014 63.8573 28.614 62.6942C34.1752 69.0508 42.2918 72.7774 50.8133 72.7774C58.6219 72.7774 66.0603 69.6783 71.5821 64.1984C74.6592 65.708 78.0301 66.4969 81.4637 66.4969ZM68.6587 58.3943C64.1788 63.6623 57.6745 66.6836 50.8133 66.6836C43.3463 66.6836 36.2714 63.0771 31.888 57.0364C31.2947 56.219 30.3658 55.7789 29.4198 55.7789C28.8718 55.7789 28.3177 55.9265 27.82 56.2343C25.5596 57.6314 22.9747 58.3699 20.3448 58.3699C12.4869 58.3697 6.09375 51.9767 6.09375 44.1187C6.09375 37.8695 10.2771 32.2535 16.2671 30.4615C17.5453 30.0791 18.4261 28.9093 18.4403 27.5751C18.5238 19.8032 24.9165 13.4803 32.6907 13.4803C35.8491 13.4803 38.8332 14.4821 41.3203 16.3771C42.6118 17.3614 44.4482 17.1599 45.4955 15.9186C49.3927 11.3004 55.0885 8.65161 61.1223 8.65161C70.9164 8.65161 79.3666 15.6277 81.2155 25.2392C81.4613 26.5175 82.4919 27.4984 83.7807 27.6808C91.8336 28.8197 97.9062 35.8186 97.9062 43.9606C97.9062 53.0271 90.5302 60.4032 81.4637 60.4032C78.3398 60.4032 75.2822 59.5036 72.6217 57.8016C71.3381 56.9805 69.6455 57.2336 68.6587 58.3943Z" fill="#7E4AE7"/>
<path d="M71.9062 70.9731C65.7461 70.9731 60.7344 75.9848 60.7344 82.145C60.7344 88.3052 65.7461 93.3169 71.9062 93.3169C78.0664 93.3169 83.0781 88.3052 83.0781 82.145C83.0781 75.9848 78.0664 70.9731 71.9062 70.9731ZM71.9062 87.2231C69.1062 87.2231 66.8281 84.9451 66.8281 82.145C66.8281 79.3449 69.1062 77.0669 71.9062 77.0669C74.7063 77.0669 76.9844 79.3449 76.9844 82.145C76.9844 84.9451 74.7063 87.2231 71.9062 87.2231Z" fill="#7E4AE7"/>
<path d="M94.8594 83.1606C89.8192 83.1606 85.7188 87.2611 85.7188 92.3013C85.7188 97.3414 89.8192 101.442 94.8594 101.442C99.8995 101.442 104 97.3414 104 92.3013C104 87.2611 99.8995 83.1606 94.8594 83.1606ZM94.8594 95.3481C93.1793 95.3481 91.8125 93.9813 91.8125 92.3013C91.8125 90.6212 93.1793 89.2544 94.8594 89.2544C96.5394 89.2544 97.9062 90.6212 97.9062 92.3013C97.9062 93.9813 96.5394 95.3481 94.8594 95.3481Z" fill="#7E4AE7"/>
</svg>
